# xmcd
#
# Track frame offsets: 
#        150
#        16683
#        43708
#        70436
#        87921
#        114474
#        129803
#        145597
#        167694
#        182309
#        199778
#        215945
#        228950
#        248194
#        265969
#        285244
#        305324
#
# Disc length: 4323 seconds
#
# Revision: 0
# Processed by: cddbd v1.5.2PL0 Copyright (c) Steve Scherf et al.
# Submitted via: ExactAudioCopy v0.99pb5
#
DISCID=e310e111
DTITLE=Various Artist - Billboard 1987
DYEAR=2000
DGENRE=Other
TTITLE0=INXS - New Sensation
TTITLE1=The Clash - Police and Thieves
TTITLE2=Guns N' Roses - Sweet Child o' Mine
TTITLE3=Pet Shop Boys - Always on My Mind
TTITLE4=Def Leppard - Hysteria
TTITLE5=Rick Astley - Together Forever
TTITLE6=The Cure - Just Like Heaven
TTITLE7=U2 - With or Without You
TTITLE8=R.E.M. - The One I Love
TTITLE9=The Cars - You Are the Girl
TTITLE10=Fleetwood Mac - Little Lies
TTITLE11=Los Lobos - La Bamba
TTITLE12=Chris de Burgh - The Lady in Red
TTITLE13=Crowded House - Don't Dream It's Over
TTITLE14=White Lion - When the Children Cry
TTITLE15=Starship - Nothing's Gonna Stop Us Now
TTITLE16=Camouflage - The Great Commandment
EXTD=
EXTT0=
EXTT1=
EXTT2=
EXTT3=
EXTT4=
EXTT5=
EXTT6=
EXTT7=
EXTT8=
EXTT9=
EXTT10=
EXTT11=
EXTT12=
EXTT13=
EXTT14=
EXTT15=
EXTT16=
PLAYORDER=
